Coordinates
version=1
nRows=26
nColumns=24
inDegrees=yes

Units are S.I. units (second, meters, Newtons, ...)
Angles are in degrees.

endheader
time	pelvis_tilt	pelvis_list	pelvis_rotation	pelvis_tx	pelvis_ty	pelvis_tz	hip_flexion_r	hip_adduction_r	hip_rotation_r	knee_angle_r	ankle_angle_r	subtalar_angle_r	mtp_angle_r	hip_flexion_l	hip_adduction_l	hip_rotation_l	knee_angle_l	ankle_angle_l	subtalar_angle_l	mtp_angle_l	lumbar_extension	lumbar_bending	lumbar_rotation
      3.41500000	     -8.32391606	    -11.14196351	      0.87447950	     -1.44410433	     -0.02627419	     -0.31388221	     16.13903982	     15.06733157	     -1.37700426	    -19.35382140	      5.00343053	     -0.59126063	     10.97914328	     27.67720697	    -16.60978914	     -3.10385103	    -67.77753508	     -7.09496944	      4.68175862	      6.72034439	      9.67021115	     10.55376776	     -8.43059647
      3.42000000	     -8.21064866	    -10.83124235	      0.70135998	     -1.43808988	     -0.02521147	     -0.31324440	     15.21891127	     14.92618950	     -0.70639933	    -18.80973962	      5.04316563	     -0.97943311	     10.53713404	     28.20018043	    -16.27732608	     -3.45130179	    -67.21926967	     -6.44746828	      4.62667638	      6.61508690	      9.49970268	     10.28602757	     -7.93322287
      3.42500000	     -8.11211954	    -10.52326408	      0.52433872	     -1.43213101	     -0.02420898	     -0.31264143	     14.33052855	     14.76935117	     -0.06911106	    -18.28424801	      5.07275467	     -1.33545123	     10.06558726	     28.71666208	    -15.94066112	     -3.80455829	    -66.58048494	     -5.76048106	      4.61821969	      6.48541724	      9.33858188	     10.02611071	     -7.46318962
      3.43000000	     -8.04239488	    -10.19048639	      0.33264116	     -1.42620160	     -0.02325377	     -0.31203508	     13.49528559	     14.56271656	      0.43579110	    -17.78134657	      5.09234243	     -1.60793784	      9.69689361	     29.23301423	    -15.58410218	     -4.18783356	    -65.84973000	     -5.12265686	      4.66165433	      6.39061150	      9.20444987	      9.73792785	     -6.95232324
      3.43500000	     -7.97583760	     -9.88355150	      0.15091760	     -1.42030126	     -0.02238474	     -0.31146932	     12.65956626	     14.36662912	      0.93397900	    -17.25692970	      5.12745918	     -1.85793914	      9.35712942	     29.74268811	    -15.24374933	     -4.54731931	    -65.05279756	     -4.48370785	      4.73146419	      6.27978789	      9.07612912	      9.47919968	     -6.48370435
      3.44000000	     -7.88701324	     -9.60607540	     -0.05296928	     -1.41441405	     -0.02155829	     -0.31091142	     11.78597502	     14.19472469	      1.46330220	    -16.70476208	      5.15145960	     -2.10085814	      8.98894006	     30.20749635	    -14.95620134	     -4.94540257	    -64.19607563	     -3.86116265	      4.82108935	      6.08623318	      8.91930321	      9.26570040	     -5.97029905
      3.44500000	     -7.79047098	     -9.36992694	     -0.25362902	     -1.40854357	     -0.02080555	     -0.31035218	     10.89416175	     14.05382950	      1.98329339	    -16.12401099	      5.17797117	     -2.31463411	      8.60045562	     30.65952562	    -14.71319402	     -5.32536660	    -63.29271228	     -3.25609016	      4.92912574	      5.78891906	      8.75154422	      9.09040244	     -5.45369889
      3.45000000	     -7.71833692	     -9.13130903	     -0.45910942	     -1.40270829	     -0.02013420	     -0.30985012	     10.05674549	     13.88780724	      2.40633877	    -15.58109681	      5.19686511	     -2.46384090	      8.27352260	     31.10508532	    -14.45643673	     -5.70190145	    -62.30468829	     -2.62765098	      5.04183879	      5.48223310	      8.60648125	      8.91635073	     -4.97110027
      3.45500000	     -7.65696821	     -8.90795820	     -0.65385984	     -1.39689053	     -0.01954834	     -0.30939625	      9.23837499	     13.71896916	      2.76653769	    -15.03611661	      5.22996415	     -2.56807505	      8.01988537	     31.54753403	    -14.20690077	     -6.06122275	    -61.25144562	     -2.03380347	      5.15488511	      5.16294315	      8.47789424	      8.76251239	     -4.50389350
      3.46000000	     -7.58238172	     -8.70506460	     -0.85644136	     -1.39109124	     -0.01901799	     -0.30895436	      8.40657959	     13.56131938	      3.11180509	    -14.48486304	      5.25612160	     -2.65122194	      7.79920913	     31.95420545	    -13.98515934	     -6.42483599	    -60.13945850	     -1.45485945	      5.26450643	      4.76722403	      8.32815788	      8.63174951	     -4.02253947
      3.46500000	     -7.49321204	     -8.56454400	     -0.99668889	     -1.38526802	     -0.01859306	     -0.30862467	      7.53605866	     13.45403957	      3.46960452	    -13.88279826	      5.26983379	     -2.79816047	      7.49196156	     32.36282855	    -13.78860650	     -6.69822032	    -59.02453362	     -0.74024818	      5.46381699	      3.97410532	      8.17878472	      8.56240930	     -3.64277832
      3.47000000	     -7.49466990	     -8.36681519	     -1.23175639	     -1.37954060	     -0.01825084	     -0.30821880	      6.83753584	     13.27555004	      3.66965194	    -13.40207068	      5.31994446	     -2.72349744	      7.43612075	     32.79377932	    -13.57520170	     -7.05782830	    -57.75912013	     -0.27709368	      5.51478884	      3.71775572	      8.10218773	      8.44732998	     -3.13805654
      3.47500000	     -7.38930371	     -8.20258331	     -1.41580890	     -1.37379358	     -0.01790357	     -0.30791206	      5.99001877	     13.12073295	      3.95043922	    -12.85782499	      5.36268818	     -2.74289809	      7.35434759	     33.10324318	    -13.36804523	     -7.36125319	    -56.46887423	      0.28271092	      5.62013622	      3.14250729	      7.90947483	      8.37325614	     -2.64336888
      3.48000000	     -7.32383250	     -8.07266808	     -1.55219242	     -1.36801262	     -0.01767684	     -0.30765749	      5.19319255	     12.99454748	      4.13968484	    -12.31151013	      5.34824158	     -2.82198751	      7.24633692	     33.45620340	    -13.17556932	     -7.61287064	    -55.16327445	      1.01026009	      5.87859727	      2.15225776	      7.77720527	      8.31470848	     -2.28136245
      3.48500000	     -7.35045589	     -7.89960601	     -1.77525696	     -1.36232003	     -0.01754396	     -0.30735015	      4.55192792	     12.81884569	      4.29260280	    -11.86775319	      5.40953936	     -2.73307582	      7.23685840	     33.84396458	    -12.97561054	     -7.93323956	    -53.71461717	      1.40699586	      5.91091836	      1.78380795	      7.72229896	      8.23423182	     -1.80673879
      3.49000000	     -7.25707897	     -7.78284887	     -1.88954926	     -1.35659197	     -0.01741212	     -0.30717115	      3.75556446	     12.69115695	      4.42965357	    -11.36272661	      5.40661434	     -2.77817437	      7.19753146	     34.11757548	    -12.77211276	     -8.12233016	    -52.29046116	      2.13973646	      6.21294342	      0.67678054	      7.54974792	      8.19326948	     -1.43805244
      3.49500000	     -7.30408450	     -7.60817598	     -2.10517586	     -1.35093396	     -0.01740876	     -0.30693642	      3.16299441	     12.50221551	      4.56498576	    -10.95576273	      5.48619941	     -2.69049809	      7.20454483	     34.47265951	    -12.56121000	     -8.42027445	    -50.71864441	      2.48985265	      6.25895093	      0.25867045	      7.50874325	      8.11762925	     -0.98474628
      3.50000000	     -7.23703034	     -7.46515751	     -2.25661174	     -1.34525975	     -0.01735902	     -0.30676595	      2.44213865	     12.33712587	      4.67875899	    -10.53356400	      5.53197813	     -2.64359139	      7.20390584	     34.68860122	    -12.34443484	     -8.62855427	    -49.11510628	      2.98832797	      6.46080462	     -0.51159366	      7.35049503	      8.05739353	     -0.55436510
      3.50500000	     -7.24367896	     -7.32528242	     -2.39816875	     -1.33958272	     -0.01744867	     -0.30662709	      1.81890746	     12.17400293	      4.75302733	    -10.13754464	      5.59151445	     -2.59981503	      7.21428457	     34.96719857	    -12.12519328	     -8.82105045	    -47.47085273	      3.47699753	      6.70165269	     -1.36045035	      7.27826806	      7.99985485	     -0.17996415
      3.51000000	     -7.24398655	     -7.19536176	     -2.51570889	     -1.33391733	     -0.01759209	     -0.30655707	      1.20795671	     12.01424275	      4.79375158	     -9.77149434	      5.66111710	     -2.53456293	      7.23739299	     35.21725026	    -11.90044505	     -8.98504661	    -45.77951044	      3.96546519	      6.99795254	     -2.24967384	      7.19541461	      7.95856816	      0.17828749
      3.51500000	     -7.25810217	     -7.10427741	     -2.58042579	     -1.32824068	     -0.01782829	     -0.30653699	      0.61939531	     11.89259762	      4.75451539	     -9.40907894	      5.71392347	     -2.44904755	      7.28316936	     35.48453390	    -11.69149003	     -9.08189391	    -44.08728890	      4.55354768	      7.47803947	     -3.40844089	      7.13684414	      7.94113076	      0.43498112
      3.52000000	     -7.37704590	     -6.96631592	     -2.70552503	     -1.32257775	     -0.01817035	     -0.30648241	      0.17413223	     11.72653693	      4.77722289	     -9.10949923	      5.81243103	     -2.37090643	      7.30798220	     35.79761320	    -11.45838650	     -9.23040122	    -42.25188066	      4.75590329	      7.71774009	     -3.80455793	      7.19017887	      7.89087156	      0.76036239
      3.52500000	     -7.34952182	     -6.82098293	     -2.81401307	     -1.31696195	     -0.01840667	     -0.30649036	     -0.40381005	     11.53621652	      4.76685622	     -8.85186254	      5.93876617	     -2.21424718	      7.38155966	     35.91426397	    -11.20611198	     -9.35534302	    -40.38647535	      5.10010854	      8.14048977	     -4.49771934	      7.06192036	      7.83280479	      1.12927176
      3.53000000	     -7.51154134	     -6.74237787	     -2.84476268	     -1.31136991	     -0.01894514	     -0.30654321	     -0.75449058	     11.43574554	      4.70035855	     -8.62352114	      6.02321173	     -2.17337018	      7.39949969	     36.26774824	    -10.97748786	     -9.33159789	    -38.50678315	      5.25715199	      8.64650481	     -4.75653118	      7.15465302	      7.82516719	      1.30771647
      3.53500000	     -7.39574163	     -6.60051314	     -2.89387282	     -1.30566528	     -0.01917689	     -0.30671258	     -1.41232995	     11.21940586	      4.54879259	     -8.38608800	      6.18717894	     -1.79419612	      7.63762576	     36.24678612	    -10.69812232	     -9.44184823	    -36.64617738	      5.83431932	      9.34587734	     -6.17908780	      6.94925037	      7.76235467	      1.59153832
      3.54000000	     -7.58800223	     -6.48956838	     -2.96941528	     -1.30008318	     -0.01979668	     -0.30678484	     -1.68109570	     11.07959817	      4.54061700	     -8.25560144	      6.29143092	     -1.74730556	      7.68112360	     36.56190772	    -10.46308858	     -9.47028504	    -34.71093499	      5.90540780	      9.92362736	     -6.39638323	      7.06260919	      7.73229804	      1.82516564
